# xmcd
#
# Track frame offsets: 
#        150
#        12680
#        24917
#        37142
#        48015
#        61092
#        74012
#        83627
#        93535
#        103770
#        113997
#        125805
#        136915
#        150730
#        158837
#        172367
#        182415
#
# Disc length: 2600 seconds
#
# Revision: 0
# Processed by: cddbd v1.5.1PL0 Copyright (c) Steve Scherf et al.
# Submitted via: ExactAudioCopy v0.95b3
#
DISCID=ea0a2611
DTITLE=Various Artist - Kings of Country [CD1]
DYEAR=1900
DGENRE=Country
TTITLE0=Kenny Rogers - Reuben James
TTITLE1=Faron Young - Sweet Dreams
TTITLE2=Willie Nelson - I Can't Find the Time
TTITLE3=Stonewall Jackson - Things to Talk About
TTITLE4=Kenny Rogers - Ruby, Don't Take Your Love to Town
TTITLE5=Johnny Paycheck - Talk About Me
TTITLE6=Ned Miller - From a Jack to a King
TTITLE7=Willie Nelson - I Didn't Sleep a Wink
TTITLE8=Waylon Jennings - White Lighting
TTITLE9=Ferlin Husky - Wings of a Dove
TTITLE10=Johnny Lee - Ramblin' Rose
TTITLE11=Faron Young - Country Girl
TTITLE12=Willie Nelson - Home Is Where You're Happy
TTITLE13=Roger Miller - Dear Heart
TTITLE14=Kenny Rogers - Shine on Ruby Mountain
TTITLE15=Buck Owens - Rhythm and Booze
TTITLE16=Faron Young - Four in the Morning
EXTD=
EXTT0=
EXTT1=
EXTT2=
EXTT3=
EXTT4=
EXTT5=
EXTT6=
EXTT7=
EXTT8=
EXTT9=
EXTT10=
EXTT11=
EXTT12=
EXTT13=
EXTT14=
EXTT15=
EXTT16=
PLAYORDER=
